<svg xmlns="http://www.w3.org/2000/svg" viewBox="0 0 1280 720">
  <defs>
    <linearGradient id="bg" x1="0" y1="0" x2="0" y2="1">
      <stop offset="0%" stop-color="#1e1e28"/>
      <stop offset="100%" stop-color="#373754"/>
    </linearGradient>
    <linearGradient id="floor" x1="0" y1="0" x2="0" y2="1">
      <stop offset="0%" stop-color="#4d4d6d"/>
      <stop offset="100%" stop-color="#10151a"/>
    </linearGradient>
    <radialGradient id="torch" cx="50%" cy="50%" r="55%">
      <stop offset="0%" stop-color="#c2b4ff" stop-opacity="0.9"/>
      <stop offset="100%" stop-color="#c2b4ff" stop-opacity="0"/>
    </radialGradient>
  </defs>
  <rect width="1280" height="720" fill="url(#bg)"/>
  <ellipse cx="210" cy="210" rx="190" ry="130" fill="url(#torch)"/>
  <ellipse cx="1060" cy="220" rx="190" ry="130" fill="url(#torch)"/>
  <path d="M0 470 L120 420 L250 470 L380 430 L520 475 L640 435 L760 480 L900 425 L1030 470 L1180 430 L1280 470 L1280 720 L0 720 Z" fill="url(#floor)"/>
  <g fill="#0f1418" opacity="0.85">
    <rect x="90" y="260" width="48" height="240" rx="6"/>
    <rect x="290" y="250" width="48" height="250" rx="6"/>
    <rect x="510" y="260" width="48" height="240" rx="6"/>
    <rect x="720" y="250" width="48" height="250" rx="6"/>
    <rect x="930" y="260" width="48" height="240" rx="6"/>
    <rect x="1130" y="250" width="48" height="250" rx="6"/>
  </g>
  <g fill="#0b0f14" opacity="0.9">
    <path d="M0 0 L130 0 L130 180 Q80 220 0 230 Z"/>
    <path d="M1280 0 L1150 0 L1150 180 Q1200 220 1280 230 Z"/>
  </g>
  <text x="40" y="62" font-family="Verdana" font-size="30" fill="#dfefff" opacity="0.9">Dungeon 10</text>
</svg>
